<mxfile host="65bd71144e">
    <diagram id="ZgFrt4CeAhkqTbdiokc3" name="Page-1">
        <mxGraphModel dx="1803" dy="1068" grid="1" gridSize="1" guides="1" tooltips="1" connect="1" arrows="1" fold="1" page="1" pageScale="1" pageWidth="850" pageHeight="1100" background="#000000" math="0" shadow="0">
            <root>
                <mxCell id="0"/>
                <mxCell id="1" parent="0"/>
                <mxCell id="27" value="Room" style="swimlane;fontStyle=1;align=center;verticalAlign=top;childLayout=stackLayout;horizontal=1;startSize=40;horizontalStack=0;resizeParent=1;resizeParentMax=0;resizeLast=0;collapsible=1;marginBottom=0;fontSize=20;" vertex="1" parent="1">
                    <mxGeometry x="60" y="10" width="250" height="370" as="geometry"/>
                </mxCell>
                <mxCell id="28" value="-Id : String&#10;+..&#10;+...&#10;..&#10;..&#10;.." style="text;strokeColor=none;fillColor=none;align=left;verticalAlign=top;spacingLeft=4;spacingRight=4;overflow=hidden;rotatable=0;points=[[0,0.5],[1,0.5]];portConstraint=eastwest;fontSize=20;" vertex="1" parent="27">
                    <mxGeometry y="40" width="250" height="150" as="geometry"/>
                </mxCell>
                <mxCell id="29" value="" style="line;strokeWidth=1;fillColor=none;align=left;verticalAlign=middle;spacingTop=-1;spacingLeft=3;spacingRight=3;rotatable=0;labelPosition=right;points=[];portConstraint=eastwest;strokeColor=inherit;fontSize=20;" vertex="1" parent="27">
                    <mxGeometry y="190" width="250" height="40" as="geometry"/>
                </mxCell>
                <mxCell id="30" value="+Room(......)&#10;+Getters(.....)&#10;+Setters(......)&#10;+getRoomCapacity()&#10;+reduceAvailableRooms()" style="text;strokeColor=none;fillColor=none;align=left;verticalAlign=top;spacingLeft=4;spacingRight=4;overflow=hidden;rotatable=0;points=[[0,0.5],[1,0.5]];portConstraint=eastwest;fontSize=20;" vertex="1" parent="27">
                    <mxGeometry y="230" width="250" height="140" as="geometry"/>
                </mxCell>
                <mxCell id="32" value="GuestStay" style="swimlane;fontStyle=1;align=center;verticalAlign=top;childLayout=stackLayout;horizontal=1;startSize=40;horizontalStack=0;resizeParent=1;resizeParentMax=0;resizeLast=0;collapsible=1;marginBottom=0;fontSize=20;" vertex="1" parent="1">
                    <mxGeometry x="580" y="10" width="250" height="370" as="geometry"/>
                </mxCell>
                <mxCell id="33" value="-idInfo : String&#10;+..&#10;+...&#10;..&#10;..&#10;.." style="text;strokeColor=none;fillColor=none;align=left;verticalAlign=top;spacingLeft=4;spacingRight=4;overflow=hidden;rotatable=0;points=[[0,0.5],[1,0.5]];portConstraint=eastwest;fontSize=20;fontColor=#0d0202;" vertex="1" parent="32">
                    <mxGeometry y="40" width="250" height="150" as="geometry"/>
                </mxCell>
                <mxCell id="34" value="" style="line;strokeWidth=1;fillColor=none;align=left;verticalAlign=middle;spacingTop=-1;spacingLeft=3;spacingRight=3;rotatable=0;labelPosition=right;points=[];portConstraint=eastwest;strokeColor=inherit;fontSize=20;" vertex="1" parent="32">
                    <mxGeometry y="190" width="250" height="40" as="geometry"/>
                </mxCell>
                <mxCell id="35" value="+GuestStay(......)&#10;+Getters(.....)&#10;+Setters(......)&#10;+recalculateFields()&#10;+reduceAvailableRooms()" style="text;strokeColor=none;fillColor=none;align=left;verticalAlign=top;spacingLeft=4;spacingRight=4;overflow=hidden;rotatable=0;points=[[0,0.5],[1,0.5]];portConstraint=eastwest;fontSize=20;" vertex="1" parent="32">
                    <mxGeometry y="230" width="250" height="140" as="geometry"/>
                </mxCell>
                <mxCell id="38" value="" style="line;strokeWidth=4;fillColor=none;align=left;verticalAlign=middle;spacingTop=-1;spacingLeft=3;spacingRight=3;rotatable=0;labelPosition=right;points=[];portConstraint=eastwest;strokeColor=inherit;fontSize=20;" vertex="1" parent="1">
                    <mxGeometry x="310" y="120" width="270" height="110" as="geometry"/>
                </mxCell>
                <mxCell id="39" value="&lt;b&gt;Book&lt;/b&gt;" style="text;html=1;align=center;verticalAlign=middle;resizable=0;points=[];autosize=1;strokeColor=none;fillColor=none;fontSize=20;strokeWidth=3;" vertex="1" parent="1">
                    <mxGeometry x="420" y="140" width="70" height="40" as="geometry"/>
                </mxCell>
                <mxCell id="40" value="&lt;b&gt;&lt;font style=&quot;font-size: 25px;&quot;&gt;0.*&lt;/font&gt;&lt;/b&gt;" style="text;html=1;align=center;verticalAlign=middle;resizable=0;points=[];autosize=1;strokeColor=none;fillColor=none;fontSize=20;" vertex="1" parent="1">
                    <mxGeometry x="535" y="130" width="50" height="40" as="geometry"/>
                </mxCell>
                <mxCell id="41" value="&lt;b&gt;&lt;font style=&quot;font-size: 25px;&quot;&gt;0.1&lt;/font&gt;&lt;/b&gt;" style="text;html=1;align=center;verticalAlign=middle;resizable=0;points=[];autosize=1;strokeColor=none;fillColor=none;fontSize=20;" vertex="1" parent="1">
                    <mxGeometry x="305" y="140" width="60" height="40" as="geometry"/>
                </mxCell>
                <mxCell id="42" value="Staff" style="swimlane;fontStyle=1;align=center;verticalAlign=top;childLayout=stackLayout;horizontal=1;startSize=40;horizontalStack=0;resizeParent=1;resizeParentMax=0;resizeLast=0;collapsible=1;marginBottom=0;fontSize=20;" vertex="1" parent="1">
                    <mxGeometry x="1290" y="10" width="250" height="360" as="geometry"/>
                </mxCell>
                <mxCell id="43" value="-idInfo : String&#10;+..&#10;+...&#10;..&#10;..&#10;.." style="text;strokeColor=none;fillColor=none;align=left;verticalAlign=top;spacingLeft=4;spacingRight=4;overflow=hidden;rotatable=0;points=[[0,0.5],[1,0.5]];portConstraint=eastwest;fontSize=20;" vertex="1" parent="42">
                    <mxGeometry y="40" width="250" height="150" as="geometry"/>
                </mxCell>
                <mxCell id="44" value="" style="line;strokeWidth=1;fillColor=none;align=left;verticalAlign=middle;spacingTop=-1;spacingLeft=3;spacingRight=3;rotatable=0;labelPosition=right;points=[];portConstraint=eastwest;strokeColor=inherit;fontSize=20;" vertex="1" parent="42">
                    <mxGeometry y="190" width="250" height="40" as="geometry"/>
                </mxCell>
                <mxCell id="45" value="+Staff(......)&#10;+Getters(.....)&#10;+Setters(......)" style="text;strokeColor=none;fillColor=none;align=left;verticalAlign=top;spacingLeft=4;spacingRight=4;overflow=hidden;rotatable=0;points=[[0,0.5],[1,0.5]];portConstraint=eastwest;fontSize=20;" vertex="1" parent="42">
                    <mxGeometry y="230" width="250" height="130" as="geometry"/>
                </mxCell>
                <mxCell id="82" style="edgeStyle=orthogonalEdgeStyle;html=1;exitX=0.25;exitY=0;exitDx=0;exitDy=0;strokeWidth=5;fontFamily=Comic Sans MS;fontSize=25;" edge="1" parent="1" source="46">
                    <mxGeometry relative="1" as="geometry">
                        <mxPoint x="1400" y="380" as="targetPoint"/>
                    </mxGeometry>
                </mxCell>
                <mxCell id="46" value="Technical" style="swimlane;fontStyle=1;align=center;verticalAlign=top;childLayout=stackLayout;horizontal=1;startSize=40;horizontalStack=0;resizeParent=1;resizeParentMax=0;resizeLast=0;collapsible=1;marginBottom=0;fontSize=20;" vertex="1" parent="1">
                    <mxGeometry x="90" y="640" width="250" height="330" as="geometry"/>
                </mxCell>
                <mxCell id="47" value="-idInfo : String&#10;+..&#10;+...&#10;..&#10;..&#10;.." style="text;strokeColor=none;fillColor=none;align=left;verticalAlign=top;spacingLeft=4;spacingRight=4;overflow=hidden;rotatable=0;points=[[0,0.5],[1,0.5]];portConstraint=eastwest;fontSize=20;" vertex="1" parent="46">
                    <mxGeometry y="40" width="250" height="150" as="geometry"/>
                </mxCell>
                <mxCell id="48" value="" style="line;strokeWidth=1;fillColor=none;align=left;verticalAlign=middle;spacingTop=-1;spacingLeft=3;spacingRight=3;rotatable=0;labelPosition=right;points=[];portConstraint=eastwest;strokeColor=inherit;fontSize=20;" vertex="1" parent="46">
                    <mxGeometry y="190" width="250" height="40" as="geometry"/>
                </mxCell>
                <mxCell id="49" value="+Technical(......)&#10;+Getters(.....)&#10;+Setters(......)" style="text;strokeColor=none;fillColor=none;align=left;verticalAlign=top;spacingLeft=4;spacingRight=4;overflow=hidden;rotatable=0;points=[[0,0.5],[1,0.5]];portConstraint=eastwest;fontSize=20;" vertex="1" parent="46">
                    <mxGeometry y="230" width="250" height="100" as="geometry"/>
                </mxCell>
                <mxCell id="83" style="edgeStyle=orthogonalEdgeStyle;html=1;exitX=0.25;exitY=0;exitDx=0;exitDy=0;strokeWidth=5;fontFamily=Comic Sans MS;fontSize=25;" edge="1" parent="1" source="55">
                    <mxGeometry relative="1" as="geometry">
                        <mxPoint x="1400" y="380" as="targetPoint"/>
                    </mxGeometry>
                </mxCell>
                <mxCell id="55" value="Managerial" style="swimlane;fontStyle=1;align=center;verticalAlign=top;childLayout=stackLayout;horizontal=1;startSize=40;horizontalStack=0;resizeParent=1;resizeParentMax=0;resizeLast=0;collapsible=1;marginBottom=0;fontSize=20;" vertex="1" parent="1">
                    <mxGeometry x="430" y="640" width="250" height="330" as="geometry"/>
                </mxCell>
                <mxCell id="56" value="-idInfo : String&#10;+..&#10;+...&#10;..&#10;..&#10;.." style="text;strokeColor=none;fillColor=none;align=left;verticalAlign=top;spacingLeft=4;spacingRight=4;overflow=hidden;rotatable=0;points=[[0,0.5],[1,0.5]];portConstraint=eastwest;fontSize=20;" vertex="1" parent="55">
                    <mxGeometry y="40" width="250" height="150" as="geometry"/>
                </mxCell>
                <mxCell id="57" value="" style="line;strokeWidth=1;fillColor=none;align=left;verticalAlign=middle;spacingTop=-1;spacingLeft=3;spacingRight=3;rotatable=0;labelPosition=right;points=[];portConstraint=eastwest;strokeColor=inherit;fontSize=20;" vertex="1" parent="55">
                    <mxGeometry y="190" width="250" height="40" as="geometry"/>
                </mxCell>
                <mxCell id="58" value="+Managerial(......)&#10;+Getters(.....)&#10;+Setters(......)" style="text;strokeColor=none;fillColor=none;align=left;verticalAlign=top;spacingLeft=4;spacingRight=4;overflow=hidden;rotatable=0;points=[[0,0.5],[1,0.5]];portConstraint=eastwest;fontSize=20;" vertex="1" parent="55">
                    <mxGeometry y="230" width="250" height="100" as="geometry"/>
                </mxCell>
                <mxCell id="84" style="edgeStyle=orthogonalEdgeStyle;html=1;exitX=0.25;exitY=0;exitDx=0;exitDy=0;strokeWidth=5;fontFamily=Comic Sans MS;fontSize=25;" edge="1" parent="1" source="59">
                    <mxGeometry relative="1" as="geometry">
                        <mxPoint x="1400" y="380" as="targetPoint"/>
                    </mxGeometry>
                </mxCell>
                <mxCell id="59" value="Operational" style="swimlane;fontStyle=1;align=center;verticalAlign=top;childLayout=stackLayout;horizontal=1;startSize=40;horizontalStack=0;resizeParent=1;resizeParentMax=0;resizeLast=0;collapsible=1;marginBottom=0;fontSize=20;" vertex="1" parent="1">
                    <mxGeometry x="780" y="640" width="250" height="330" as="geometry"/>
                </mxCell>
                <mxCell id="60" value="-idInfo : String&#10;+..&#10;+...&#10;..&#10;..&#10;.." style="text;strokeColor=none;fillColor=none;align=left;verticalAlign=top;spacingLeft=4;spacingRight=4;overflow=hidden;rotatable=0;points=[[0,0.5],[1,0.5]];portConstraint=eastwest;fontSize=20;" vertex="1" parent="59">
                    <mxGeometry y="40" width="250" height="150" as="geometry"/>
                </mxCell>
                <mxCell id="61" value="" style="line;strokeWidth=1;fillColor=none;align=left;verticalAlign=middle;spacingTop=-1;spacingLeft=3;spacingRight=3;rotatable=0;labelPosition=right;points=[];portConstraint=eastwest;strokeColor=inherit;fontSize=20;" vertex="1" parent="59">
                    <mxGeometry y="190" width="250" height="40" as="geometry"/>
                </mxCell>
                <mxCell id="62" value="+Operational(......)&#10;+Getters(.....)&#10;+Setters(......)" style="text;strokeColor=none;fillColor=none;align=left;verticalAlign=top;spacingLeft=4;spacingRight=4;overflow=hidden;rotatable=0;points=[[0,0.5],[1,0.5]];portConstraint=eastwest;fontSize=20;" vertex="1" parent="59">
                    <mxGeometry y="230" width="250" height="100" as="geometry"/>
                </mxCell>
                <mxCell id="85" style="edgeStyle=orthogonalEdgeStyle;html=1;exitX=0.25;exitY=0;exitDx=0;exitDy=0;strokeWidth=5;fontFamily=Comic Sans MS;fontSize=25;" edge="1" parent="1" source="63">
                    <mxGeometry relative="1" as="geometry">
                        <mxPoint x="1400" y="380" as="targetPoint"/>
                    </mxGeometry>
                </mxCell>
                <mxCell id="63" value="CustomerService" style="swimlane;fontStyle=1;align=center;verticalAlign=top;childLayout=stackLayout;horizontal=1;startSize=40;horizontalStack=0;resizeParent=1;resizeParentMax=0;resizeLast=0;collapsible=1;marginBottom=0;fontSize=20;" vertex="1" parent="1">
                    <mxGeometry x="1210" y="640" width="250" height="330" as="geometry"/>
                </mxCell>
                <mxCell id="64" value="-idInfo : String&#10;+..&#10;+...&#10;..&#10;..&#10;.." style="text;strokeColor=none;fillColor=none;align=left;verticalAlign=top;spacingLeft=4;spacingRight=4;overflow=hidden;rotatable=0;points=[[0,0.5],[1,0.5]];portConstraint=eastwest;fontSize=20;" vertex="1" parent="63">
                    <mxGeometry y="40" width="250" height="150" as="geometry"/>
                </mxCell>
                <mxCell id="65" value="" style="line;strokeWidth=1;fillColor=none;align=left;verticalAlign=middle;spacingTop=-1;spacingLeft=3;spacingRight=3;rotatable=0;labelPosition=right;points=[];portConstraint=eastwest;strokeColor=inherit;fontSize=20;" vertex="1" parent="63">
                    <mxGeometry y="190" width="250" height="40" as="geometry"/>
                </mxCell>
                <mxCell id="66" value="+CustomerService(......)&#10;+Getters(.....)&#10;+Setters(......)" style="text;strokeColor=none;fillColor=none;align=left;verticalAlign=top;spacingLeft=4;spacingRight=4;overflow=hidden;rotatable=0;points=[[0,0.5],[1,0.5]];portConstraint=eastwest;fontSize=20;" vertex="1" parent="63">
                    <mxGeometry y="230" width="250" height="100" as="geometry"/>
                </mxCell>
            </root>
        </mxGraphModel>
    </diagram>
</mxfile>